<svg width="1280" height="640" viewBox="0 0 1280 640" fill="none" xmlns="http://www.w3.org/2000/svg" role="img" aria-labelledby="title desc">
  <title id="title">YLZ Digital Cyber Premium Banner</title>
  <desc id="desc">A dark premium hero banner for YLZ Digital featuring cyber themed accents and technology focused messaging.</desc>
  <defs>
    <linearGradient id="bg" x1="90" y1="40" x2="1190" y2="600" gradientUnits="userSpaceOnUse">
      <stop offset="0" stop-color="#020617"/>
      <stop offset="0.55" stop-color="#081122"/>
      <stop offset="1" stop-color="#030712"/>
    </linearGradient>
    <linearGradient id="line" x1="0" y1="0" x2="1" y2="1">
      <stop offset="0" stop-color="#22D3EE" stop-opacity="0.9"/>
      <stop offset="1" stop-color="#38BDF8" stop-opacity="0.15"/>
    </linearGradient>
    <linearGradient id="panel" x1="0" y1="0" x2="1" y2="1">
      <stop offset="0" stop-color="#0B162B" stop-opacity="0.92"/>
      <stop offset="1" stop-color="#091223" stop-opacity="0.72"/>
    </linearGradient>
    <radialGradient id="glowA" cx="0" cy="0" r="1" gradientUnits="userSpaceOnUse" gradientTransform="translate(1038 154) rotate(90) scale(238 238)">
      <stop stop-color="#22D3EE" stop-opacity="0.35"/>
      <stop offset="1" stop-color="#22D3EE" stop-opacity="0"/>
    </radialGradient>
    <radialGradient id="glowB" cx="0" cy="0" r="1" gradientUnits="userSpaceOnUse" gradientTransform="translate(948 480) rotate(90) scale(280 280)">
      <stop stop-color="#0EA5E9" stop-opacity="0.22"/>
      <stop offset="1" stop-color="#0EA5E9" stop-opacity="0"/>
    </radialGradient>
    <filter id="softGlow" x="-20%" y="-20%" width="140%" height="140%">
      <feGaussianBlur stdDeviation="28"/>
    </filter>
  </defs>

  <rect width="1280" height="640" rx="28" fill="url(#bg)"/>

  <g opacity="0.18">
    <path d="M0 108H1280" stroke="url(#line)"/>
    <path d="M0 204H1280" stroke="url(#line)"/>
    <path d="M0 300H1280" stroke="url(#line)"/>
    <path d="M0 396H1280" stroke="url(#line)"/>
    <path d="M0 492H1280" stroke="url(#line)"/>
    <path d="M0 588H1280" stroke="url(#line)"/>
    <path d="M140 0V640" stroke="url(#line)"/>
    <path d="M268 0V640" stroke="url(#line)"/>
    <path d="M396 0V640" stroke="url(#line)"/>
    <path d="M524 0V640" stroke="url(#line)"/>
    <path d="M652 0V640" stroke="url(#line)"/>
    <path d="M780 0V640" stroke="url(#line)"/>
    <path d="M908 0V640" stroke="url(#line)"/>
    <path d="M1036 0V640" stroke="url(#line)"/>
    <path d="M1164 0V640" stroke="url(#line)"/>
  </g>

  <circle cx="1038" cy="154" r="238" fill="url(#glowA)" filter="url(#softGlow)"/>
  <circle cx="948" cy="480" r="280" fill="url(#glowB)" filter="url(#softGlow)"/>

  <rect x="66" y="74" width="218" height="36" rx="18" fill="#0B162B" stroke="#164E63"/>
  <text x="92" y="97" fill="#67E8F9" font-family="Segoe UI, Arial, sans-serif" font-size="15" font-weight="700" letter-spacing="2.2">
    ORGANIZATION PROFILE
  </text>

  <text x="72" y="198" fill="white" font-family="Segoe UI, Arial, sans-serif" font-size="72" font-weight="700">
    YLZ Digital
  </text>
  <text x="72" y="254" fill="#BAE6FD" font-family="Segoe UI, Arial, sans-serif" font-size="32" font-weight="600">
    Full Stack Web Development and Cyber Security
  </text>

  <text x="72" y="332" fill="#D7E8F8" font-family="Segoe UI, Arial, sans-serif" font-size="24">
    Building modular web systems, mobile utilities,
  </text>
  <text x="72" y="368" fill="#D7E8F8" font-family="Segoe UI, Arial, sans-serif" font-size="24">
    and proactive AI-based security architectures.
  </text>

  <path d="M72 414H366" stroke="#22D3EE" stroke-width="3" stroke-linecap="round"/>

  <rect x="72" y="460" width="258" height="112" rx="20" fill="url(#panel)" stroke="#164E63"/>
  <text x="98" y="498" fill="#67E8F9" font-family="Segoe UI, Arial, sans-serif" font-size="14" font-weight="700" letter-spacing="1.8">
    MODULAR SYSTEMS
  </text>
  <text x="98" y="533" fill="white" font-family="Segoe UI, Arial, sans-serif" font-size="25" font-weight="600">
    Scalable product
  </text>
  <text x="98" y="563" fill="white" font-family="Segoe UI, Arial, sans-serif" font-size="25" font-weight="600">
    architecture
  </text>

  <rect x="358" y="460" width="258" height="112" rx="20" fill="url(#panel)" stroke="#164E63"/>
  <text x="384" y="498" fill="#67E8F9" font-family="Segoe UI, Arial, sans-serif" font-size="14" font-weight="700" letter-spacing="1.8">
    AI-DRIVEN DEFENSE
  </text>
  <text x="384" y="533" fill="white" font-family="Segoe UI, Arial, sans-serif" font-size="25" font-weight="600">
    Detection, analysis,
  </text>
  <text x="384" y="563" fill="white" font-family="Segoe UI, Arial, sans-serif" font-size="25" font-weight="600">
    and response
  </text>

  <rect x="644" y="460" width="258" height="112" rx="20" fill="url(#panel)" stroke="#164E63"/>
  <text x="670" y="498" fill="#67E8F9" font-family="Segoe UI, Arial, sans-serif" font-size="14" font-weight="700" letter-spacing="1.8">
    MOBILE UTILITIES
  </text>
  <text x="670" y="533" fill="white" font-family="Segoe UI, Arial, sans-serif" font-size="25" font-weight="600">
    Practical tools
  </text>
  <text x="670" y="563" fill="white" font-family="Segoe UI, Arial, sans-serif" font-size="25" font-weight="600">
    for developers
  </text>

  <g opacity="0.85">
    <rect x="932" y="126" width="256" height="298" rx="26" fill="#07111F" stroke="#164E63"/>
    <rect x="962" y="162" width="196" height="10" rx="5" fill="#12324C"/>
    <rect x="962" y="192" width="138" height="10" rx="5" fill="#0E7490"/>
    <rect x="962" y="252" width="196" height="1" fill="#164E63"/>
    <rect x="962" y="286" width="72" height="72" rx="14" fill="#0B162B" stroke="#155E75"/>
    <path d="M982 322L1002 302L1014 314L1042 286" stroke="#22D3EE" stroke-width="4" stroke-linecap="round" stroke-linejoin="round"/>
    <rect x="1054" y="286" width="104" height="12" rx="6" fill="#12324C"/>
    <rect x="1054" y="310" width="84" height="12" rx="6" fill="#0E7490"/>
    <rect x="1054" y="334" width="66" height="12" rx="6" fill="#12324C"/>
    <rect x="962" y="382" width="196" height="1" fill="#164E63"/>
    <text x="962" y="230" fill="#E2F3FF" font-family="Segoe UI, Arial, sans-serif" font-size="22" font-weight="600">
      Security-oriented
    </text>
    <text x="962" y="402" fill="#67E8F9" font-family="Segoe UI, Arial, sans-serif" font-size="14" font-weight="700" letter-spacing="1.7">
      PYTHON · YARA · CI4 · FRANKENPHP
    </text>
  </g>
</svg>
