<svg width="1280" height="640" viewBox="0 0 1280 640" fill="none" xmlns="http://www.w3.org/2000/svg" role="img" aria-labelledby="title desc">
  <title id="title">YLZ Digital Cyber Premium Banner</title>
  <desc id="desc">A premium dark banner for YLZ Digital with clearly separated Web Development and Cyber Security panels and non-overlapping typography.</desc>
  <defs>
    <linearGradient id="bg" x1="88" y1="36" x2="1198" y2="612" gradientUnits="userSpaceOnUse">
      <stop offset="0" stop-color="#020617"/>
      <stop offset="0.54" stop-color="#071323"/>
      <stop offset="1" stop-color="#030712"/>
    </linearGradient>
    <linearGradient id="grid" x1="0" y1="0" x2="1" y2="1">
      <stop offset="0" stop-color="#38BDF8" stop-opacity="0.34"/>
      <stop offset="1" stop-color="#22D3EE" stop-opacity="0.08"/>
    </linearGradient>
    <linearGradient id="webPanel" x1="716" y1="100" x2="1216" y2="320" gradientUnits="userSpaceOnUse">
      <stop offset="0" stop-color="#0B1730" stop-opacity="0.97"/>
      <stop offset="1" stop-color="#0A1324" stop-opacity="0.86"/>
    </linearGradient>
    <linearGradient id="cyberPanel" x1="716" y1="330" x2="1216" y2="558" gradientUnits="userSpaceOnUse">
      <stop offset="0" stop-color="#071922" stop-opacity="0.97"/>
      <stop offset="1" stop-color="#091222" stop-opacity="0.86"/>
    </linearGradient>
    <linearGradient id="webCard" x1="1102" y1="126" x2="1194" y2="290" gradientUnits="userSpaceOnUse">
      <stop offset="0" stop-color="#0A1A32"/>
      <stop offset="1" stop-color="#0A1528"/>
    </linearGradient>
    <linearGradient id="cyberCard" x1="1102" y1="356" x2="1196" y2="526" gradientUnits="userSpaceOnUse">
      <stop offset="0" stop-color="#081A20"/>
      <stop offset="1" stop-color="#091621"/>
    </linearGradient>
    <linearGradient id="webSheen" x1="732" y1="116" x2="1192" y2="196" gradientUnits="userSpaceOnUse">
      <stop offset="0" stop-color="#DBEAFE" stop-opacity="0.1"/>
      <stop offset="1" stop-color="#DBEAFE" stop-opacity="0"/>
    </linearGradient>
    <linearGradient id="cyberSheen" x1="732" y1="346" x2="1192" y2="430" gradientUnits="userSpaceOnUse">
      <stop offset="0" stop-color="#CCFBF1" stop-opacity="0.1"/>
      <stop offset="1" stop-color="#CCFBF1" stop-opacity="0"/>
    </linearGradient>
    <radialGradient id="glowLeft" cx="0" cy="0" r="1" gradientUnits="userSpaceOnUse" gradientTransform="translate(240 138) rotate(90) scale(260 260)">
      <stop stop-color="#2563EB" stop-opacity="0.18"/>
      <stop offset="1" stop-color="#2563EB" stop-opacity="0"/>
    </radialGradient>
    <radialGradient id="glowRight" cx="0" cy="0" r="1" gradientUnits="userSpaceOnUse" gradientTransform="translate(1038 210) rotate(90) scale(280 280)">
      <stop stop-color="#22D3EE" stop-opacity="0.22"/>
      <stop offset="1" stop-color="#22D3EE" stop-opacity="0"/>
    </radialGradient>
    <filter id="softGlow" x="-20%" y="-20%" width="140%" height="140%">
      <feGaussianBlur stdDeviation="30"/>
    </filter>
    <filter id="panelShadow" x="-10%" y="-10%" width="120%" height="120%">
      <feDropShadow dx="0" dy="18" stdDeviation="18" flood-color="#020617" flood-opacity="0.38"/>
    </filter>
    <filter id="cardShadow" x="-20%" y="-20%" width="140%" height="140%">
      <feDropShadow dx="0" dy="10" stdDeviation="10" flood-color="#020617" flood-opacity="0.35"/>
    </filter>
  </defs>

  <rect width="1280" height="640" rx="28" fill="url(#bg)"/>

  <g opacity="0.16">
    <path d="M0 100H1280" stroke="url(#grid)"/>
    <path d="M0 196H1280" stroke="url(#grid)"/>
    <path d="M0 292H1280" stroke="url(#grid)"/>
    <path d="M0 388H1280" stroke="url(#grid)"/>
    <path d="M0 484H1280" stroke="url(#grid)"/>
    <path d="M0 580H1280" stroke="url(#grid)"/>
    <path d="M132 0V640" stroke="url(#grid)"/>
    <path d="M260 0V640" stroke="url(#grid)"/>
    <path d="M388 0V640" stroke="url(#grid)"/>
    <path d="M516 0V640" stroke="url(#grid)"/>
    <path d="M644 0V640" stroke="url(#grid)"/>
    <path d="M772 0V640" stroke="url(#grid)"/>
    <path d="M900 0V640" stroke="url(#grid)"/>
    <path d="M1028 0V640" stroke="url(#grid)"/>
    <path d="M1156 0V640" stroke="url(#grid)"/>
  </g>

  <circle cx="240" cy="138" r="260" fill="url(#glowLeft)" filter="url(#softGlow)"/>
  <circle cx="1038" cy="210" r="280" fill="url(#glowRight)" filter="url(#softGlow)"/>

  <rect x="66" y="68" width="264" height="40" rx="20" fill="#0A1324" stroke="#164E63"/>
  <text x="92" y="93" fill="#67E8F9" font-family="Segoe UI, Arial, sans-serif" font-size="15" font-weight="700" letter-spacing="1.8">
    ORGANIZATION PROFILE
  </text>

  <text x="70" y="186" fill="white" font-family="Segoe UI, Arial, sans-serif" font-size="72" font-weight="700">
    YLZ Digital
  </text>
  <text x="72" y="236" fill="#BFDBFE" font-family="Segoe UI, Arial, sans-serif" font-size="26" font-weight="600">
    Full Stack Engineering
  </text>
  <text x="72" y="272" fill="#BFDBFE" font-family="Segoe UI, Arial, sans-serif" font-size="26" font-weight="600">
    with a Security-First Mindset
  </text>

  <text x="72" y="324" fill="#D6E6F5" font-family="Segoe UI, Arial, sans-serif" font-size="22">
    Building modular web systems, mobile utilities,
  </text>
  <text x="72" y="356" fill="#D6E6F5" font-family="Segoe UI, Arial, sans-serif" font-size="22">
    and proactive AI-based security architectures.
  </text>

  <path d="M72 394H430" stroke="#38BDF8" stroke-width="3" stroke-linecap="round"/>

  <text x="72" y="438" fill="#7DD3FC" font-family="Segoe UI, Arial, sans-serif" font-size="15" font-weight="700" letter-spacing="2">
    DELIVERY FOCUS
  </text>

  <rect x="72" y="456" width="148" height="42" rx="21" fill="#0B1730" stroke="#1D4ED8"/>
  <text x="103" y="483" fill="white" font-family="Segoe UI, Arial, sans-serif" font-size="15" font-weight="700" letter-spacing="1.2">
    MODULAR
  </text>

  <rect x="236" y="456" width="148" height="42" rx="21" fill="#0A1727" stroke="#155E75"/>
  <text x="266" y="483" fill="white" font-family="Segoe UI, Arial, sans-serif" font-size="15" font-weight="700" letter-spacing="1.2">
    SCALABLE
  </text>

  <rect x="400" y="456" width="148" height="42" rx="21" fill="#081722" stroke="#0F766E"/>
  <text x="444" y="483" fill="white" font-family="Segoe UI, Arial, sans-serif" font-size="15" font-weight="700" letter-spacing="1.2">
    SECURE
  </text>

  <text x="72" y="542" fill="#93C5FD" font-family="Segoe UI, Arial, sans-serif" font-size="18" font-weight="600">
    Web engineering and cyber defense,
  </text>
  <text x="72" y="570" fill="#93C5FD" font-family="Segoe UI, Arial, sans-serif" font-size="18" font-weight="600">
    presented as two distinct pillars of one brand.
  </text>

  <g filter="url(#panelShadow)">
    <rect x="716" y="100" width="500" height="220" rx="28" fill="url(#webPanel)" stroke="#3B82F6"/>
    <rect x="716" y="330" width="500" height="228" rx="28" fill="url(#cyberPanel)" stroke="#14B8A6"/>
  </g>
  <rect x="728" y="112" width="476" height="56" rx="24" fill="url(#webSheen)"/>
  <rect x="728" y="342" width="476" height="60" rx="24" fill="url(#cyberSheen)"/>
  <path d="M748 176H1068" stroke="#60A5FA" stroke-opacity="0.24"/>
  <path d="M748 406H1068" stroke="#2DD4BF" stroke-opacity="0.24"/>

  <rect x="744" y="122" width="238" height="36" rx="18" fill="#0C1A33" stroke="#2563EB"/>
  <text x="774" y="145" fill="#93C5FD" font-family="Segoe UI, Arial, sans-serif" font-size="15" font-weight="700" letter-spacing="1.8">
    WEB DEVELOPMENT
  </text>

  <text x="748" y="190" fill="white" font-family="Segoe UI, Arial, sans-serif" font-size="31" font-weight="700">
    Web systems and
  </text>
  <text x="748" y="226" fill="white" font-family="Segoe UI, Arial, sans-serif" font-size="31" font-weight="700">
    digital platforms
  </text>
  <text x="748" y="258" fill="#D9EAFE" font-family="Segoe UI, Arial, sans-serif" font-size="18">
    Modern websites, modular CMS products,
  </text>
  <text x="748" y="284" fill="#D9EAFE" font-family="Segoe UI, Arial, sans-serif" font-size="18">
    and full stack delivery for scalable growth.
  </text>
  <rect x="748" y="290" width="58" height="22" rx="11" fill="#0B1730" stroke="#1D4ED8"/>
  <text x="767" y="304" fill="#DBEAFE" font-family="Segoe UI, Arial, sans-serif" font-size="10" font-weight="700" letter-spacing="0.9">
    PHP
  </text>
  <rect x="814" y="290" width="54" height="22" rx="11" fill="#0B1730" stroke="#1D4ED8"/>
  <text x="833" y="304" fill="#DBEAFE" font-family="Segoe UI, Arial, sans-serif" font-size="10" font-weight="700" letter-spacing="0.9">
    CI4
  </text>
  <rect x="876" y="290" width="82" height="22" rx="11" fill="#0B1730" stroke="#1D4ED8"/>
  <text x="895" y="304" fill="#DBEAFE" font-family="Segoe UI, Arial, sans-serif" font-size="10" font-weight="700" letter-spacing="0.9">
    NEXT.JS
  </text>
  <rect x="966" y="290" width="84" height="22" rx="11" fill="#0B1730" stroke="#1D4ED8"/>
  <text x="988" y="304" fill="#DBEAFE" font-family="Segoe UI, Arial, sans-serif" font-size="10" font-weight="700" letter-spacing="0.9">
    ASTRO.JS
  </text>

  <g filter="url(#cardShadow)">
    <rect x="1096" y="126" width="100" height="156" rx="22" fill="url(#webCard)" stroke="#2563EB"/>
  </g>
  <rect x="1110" y="138" width="72" height="18" rx="9" fill="#0B1730" stroke="#1D4ED8"/>
  <text x="1128" y="150" fill="#DBEAFE" font-family="Segoe UI, Arial, sans-serif" font-size="9" font-weight="700" letter-spacing="0.9">
    FRONTEND
  </text>
  <rect x="1118" y="164" width="56" height="8" rx="4" fill="#60A5FA"/>
  <rect x="1118" y="186" width="56" height="42" rx="8" fill="none" stroke="#93C5FD" stroke-width="2.5"/>
  <path d="M1130 208L1140 198L1130 188" stroke="#BFDBFE" stroke-width="2.5" stroke-linecap="round" stroke-linejoin="round"/>
  <path d="M1162 188L1152 198L1162 208" stroke="#BFDBFE" stroke-width="2.5" stroke-linecap="round" stroke-linejoin="round"/>
  <rect x="1110" y="238" width="32" height="22" rx="11" fill="#0B1730" stroke="#1D4ED8"/>
  <text x="1119" y="252" fill="#DBEAFE" font-family="Segoe UI, Arial, sans-serif" font-size="10" font-weight="700" letter-spacing="0.9">
    CMS
  </text>
  <rect x="1148" y="238" width="32" height="22" rx="11" fill="#0B1730" stroke="#1D4ED8"/>
  <text x="1157" y="252" fill="#DBEAFE" font-family="Segoe UI, Arial, sans-serif" font-size="10" font-weight="700" letter-spacing="0.9">
    WEB
  </text>

  <rect x="744" y="352" width="222" height="36" rx="18" fill="#081A20" stroke="#0F766E"/>
  <text x="774" y="375" fill="#99F6E4" font-family="Segoe UI, Arial, sans-serif" font-size="15" font-weight="700" letter-spacing="1.8">
    CYBER SECURITY
  </text>

  <text x="748" y="420" fill="white" font-family="Segoe UI, Arial, sans-serif" font-size="31" font-weight="700">
    Proactive cyber
  </text>
  <text x="748" y="456" fill="white" font-family="Segoe UI, Arial, sans-serif" font-size="31" font-weight="700">
    security architecture
  </text>
  <text x="748" y="490" fill="#D7F9F5" font-family="Segoe UI, Arial, sans-serif" font-size="18">
    AI-driven monitoring and vulnerability analysis
  </text>
  <text x="748" y="516" fill="#D7F9F5" font-family="Segoe UI, Arial, sans-serif" font-size="18">
    with defense-oriented workflows for visibility,
  </text>
  <text x="748" y="542" fill="#D7F9F5" font-family="Segoe UI, Arial, sans-serif" font-size="18">
    response readiness, and operational resilience.
  </text>
  <rect x="748" y="526" width="70" height="22" rx="11" fill="#081A20" stroke="#0F766E"/>
  <text x="766" y="540" fill="#CCFBF1" font-family="Segoe UI, Arial, sans-serif" font-size="10" font-weight="700" letter-spacing="0.9">
    PYTHON
  </text>
  <rect x="826" y="526" width="58" height="22" rx="11" fill="#081A20" stroke="#0F766E"/>
  <text x="845" y="540" fill="#CCFBF1" font-family="Segoe UI, Arial, sans-serif" font-size="10" font-weight="700" letter-spacing="0.9">
    YARA
  </text>
  <rect x="892" y="526" width="98" height="22" rx="11" fill="#081A20" stroke="#0F766E"/>
  <text x="909" y="540" fill="#CCFBF1" font-family="Segoe UI, Arial, sans-serif" font-size="10" font-weight="700" letter-spacing="0.9">
    MONITORING
  </text>
  <rect x="998" y="526" width="78" height="22" rx="11" fill="#081A20" stroke="#0F766E"/>
  <text x="1017" y="540" fill="#CCFBF1" font-family="Segoe UI, Arial, sans-serif" font-size="10" font-weight="700" letter-spacing="0.9">
    DEFENSE
  </text>

  <g filter="url(#cardShadow)">
    <rect x="1096" y="356" width="104" height="162" rx="22" fill="url(#cyberCard)" stroke="#14B8A6"/>
  </g>
  <rect x="1110" y="370" width="76" height="18" rx="9" fill="#081A20" stroke="#0F766E"/>
  <text x="1128" y="382" fill="#CCFBF1" font-family="Segoe UI, Arial, sans-serif" font-size="9" font-weight="700" letter-spacing="0.9">
    DEFENSE
  </text>
  <path d="M1148 380L1172 392V420C1172 437 1162 452 1148 457C1134 452 1124 437 1124 420V392L1148 380Z" fill="none" stroke="#99F6E4" stroke-width="3"/>
  <path d="M1140 420L1147 427L1160 413" stroke="#99F6E4" stroke-width="3" stroke-linecap="round" stroke-linejoin="round"/>
  <circle cx="1120" cy="390" r="5" fill="#14B8A6"/>
  <circle cx="1176" cy="390" r="5" fill="#14B8A6"/>
  <circle cx="1120" cy="468" r="5" fill="#14B8A6"/>
  <circle cx="1176" cy="468" r="5" fill="#14B8A6"/>
  <path d="M1126 394L1134 401" stroke="#2DD4BF" stroke-width="2"/>
  <path d="M1162 401L1170 394" stroke="#2DD4BF" stroke-width="2"/>
  <path d="M1126 464L1134 457" stroke="#2DD4BF" stroke-width="2"/>
  <path d="M1162 457L1170 464" stroke="#2DD4BF" stroke-width="2"/>
  <rect x="1106" y="482" width="34" height="22" rx="11" fill="#081A20" stroke="#0F766E"/>
  <text x="1116" y="496" fill="#CCFBF1" font-family="Segoe UI, Arial, sans-serif" font-size="10" font-weight="700" letter-spacing="0.9">
    AI
  </text>
  <rect x="1146" y="482" width="40" height="22" rx="11" fill="#081A20" stroke="#0F766E"/>
  <text x="1156" y="496" fill="#CCFBF1" font-family="Segoe UI, Arial, sans-serif" font-size="10" font-weight="700" letter-spacing="0.9">
    YARA
  </text>
</svg>
