<svg width="1280" height="640" viewBox="0 0 1280 640" fill="none" xmlns="http://www.w3.org/2000/svg" role="img" aria-labelledby="title desc">
  <title id="title">YLZ Digital Cyber Premium Banner</title>
  <desc id="desc">A premium dark banner for YLZ Digital with clearly separated Web Development and Cyber Security panels and non-overlapping typography.</desc>
  <defs>
    <linearGradient id="bg" x1="88" y1="36" x2="1198" y2="612" gradientUnits="userSpaceOnUse">
      <stop offset="0" stop-color="#020617"/>
      <stop offset="0.54" stop-color="#071323"/>
      <stop offset="1" stop-color="#030712"/>
    </linearGradient>
    <linearGradient id="grid" x1="0" y1="0" x2="1" y2="1">
      <stop offset="0" stop-color="#38BDF8" stop-opacity="0.34"/>
      <stop offset="1" stop-color="#22D3EE" stop-opacity="0.08"/>
    </linearGradient>
    <linearGradient id="webPanel" x1="700" y1="92" x2="1220" y2="338" gradientUnits="userSpaceOnUse">
      <stop offset="0" stop-color="#0B1730" stop-opacity="0.97"/>
      <stop offset="1" stop-color="#0A1324" stop-opacity="0.86"/>
    </linearGradient>
    <linearGradient id="cyberPanel" x1="700" y1="344" x2="1220" y2="620" gradientUnits="userSpaceOnUse">
      <stop offset="0" stop-color="#071922" stop-opacity="0.97"/>
      <stop offset="1" stop-color="#091222" stop-opacity="0.86"/>
    </linearGradient>
    <linearGradient id="webCard" x1="1090" y1="122" x2="1208" y2="300" gradientUnits="userSpaceOnUse">
      <stop offset="0" stop-color="#0A1A32"/>
      <stop offset="1" stop-color="#0A1528"/>
    </linearGradient>
    <linearGradient id="cyberCard" x1="1092" y1="368" x2="1208" y2="566" gradientUnits="userSpaceOnUse">
      <stop offset="0" stop-color="#081A20"/>
      <stop offset="1" stop-color="#091621"/>
    </linearGradient>
    <linearGradient id="webSheen" x1="716" y1="104" x2="1210" y2="204" gradientUnits="userSpaceOnUse">
      <stop offset="0" stop-color="#DBEAFE" stop-opacity="0.1"/>
      <stop offset="1" stop-color="#DBEAFE" stop-opacity="0"/>
    </linearGradient>
    <linearGradient id="cyberSheen" x1="716" y1="356" x2="1210" y2="456" gradientUnits="userSpaceOnUse">
      <stop offset="0" stop-color="#CCFBF1" stop-opacity="0.1"/>
      <stop offset="1" stop-color="#CCFBF1" stop-opacity="0"/>
    </linearGradient>
    <radialGradient id="glowLeft" cx="0" cy="0" r="1" gradientUnits="userSpaceOnUse" gradientTransform="translate(240 138) rotate(90) scale(260 260)">
      <stop stop-color="#2563EB" stop-opacity="0.18"/>
      <stop offset="1" stop-color="#2563EB" stop-opacity="0"/>
    </radialGradient>
    <radialGradient id="glowRight" cx="0" cy="0" r="1" gradientUnits="userSpaceOnUse" gradientTransform="translate(1038 210) rotate(90) scale(280 280)">
      <stop stop-color="#22D3EE" stop-opacity="0.22"/>
      <stop offset="1" stop-color="#22D3EE" stop-opacity="0"/>
    </radialGradient>
    <filter id="softGlow" x="-20%" y="-20%" width="140%" height="140%">
      <feGaussianBlur stdDeviation="30"/>
    </filter>
    <filter id="panelShadow" x="-10%" y="-10%" width="120%" height="120%">
      <feDropShadow dx="0" dy="18" stdDeviation="18" flood-color="#020617" flood-opacity="0.38"/>
    </filter>
    <filter id="cardShadow" x="-20%" y="-20%" width="140%" height="140%">
      <feDropShadow dx="0" dy="10" stdDeviation="10" flood-color="#020617" flood-opacity="0.35"/>
    </filter>
  </defs>

  <rect width="1280" height="640" rx="28" fill="url(#bg)"/>

  <g opacity="0.16">
    <path d="M0 100H1280" stroke="url(#grid)"/>
    <path d="M0 196H1280" stroke="url(#grid)"/>
    <path d="M0 292H1280" stroke="url(#grid)"/>
    <path d="M0 388H1280" stroke="url(#grid)"/>
    <path d="M0 484H1280" stroke="url(#grid)"/>
    <path d="M0 580H1280" stroke="url(#grid)"/>
    <path d="M132 0V640" stroke="url(#grid)"/>
    <path d="M260 0V640" stroke="url(#grid)"/>
    <path d="M388 0V640" stroke="url(#grid)"/>
    <path d="M516 0V640" stroke="url(#grid)"/>
    <path d="M644 0V640" stroke="url(#grid)"/>
    <path d="M772 0V640" stroke="url(#grid)"/>
    <path d="M900 0V640" stroke="url(#grid)"/>
    <path d="M1028 0V640" stroke="url(#grid)"/>
    <path d="M1156 0V640" stroke="url(#grid)"/>
  </g>

  <circle cx="240" cy="138" r="260" fill="url(#glowLeft)" filter="url(#softGlow)"/>
  <circle cx="1038" cy="210" r="280" fill="url(#glowRight)" filter="url(#softGlow)"/>

  <rect x="66" y="68" width="264" height="40" rx="20" fill="#0A1324" stroke="#164E63"/>
  <text x="92" y="93" fill="#67E8F9" font-family="Segoe UI, Arial, sans-serif" font-size="15" font-weight="700" letter-spacing="1.8">
    ORGANIZATION PROFILE
  </text>

  <text x="70" y="186" fill="white" font-family="Segoe UI, Arial, sans-serif" font-size="72" font-weight="700">
    YLZ Digital
  </text>
  <text x="72" y="236" fill="#BFDBFE" font-family="Segoe UI, Arial, sans-serif" font-size="26" font-weight="600">
    Full Stack Engineering
  </text>
  <text x="72" y="272" fill="#BFDBFE" font-family="Segoe UI, Arial, sans-serif" font-size="26" font-weight="600">
    with a Security-First Mindset
  </text>

  <text x="72" y="324" fill="#D6E6F5" font-family="Segoe UI, Arial, sans-serif" font-size="22">
    Building modular web systems, mobile utilities,
  </text>
  <text x="72" y="356" fill="#D6E6F5" font-family="Segoe UI, Arial, sans-serif" font-size="22">
    and proactive AI-based security architectures.
  </text>

  <path d="M72 394H430" stroke="#38BDF8" stroke-width="3" stroke-linecap="round"/>

  <text x="72" y="438" fill="#7DD3FC" font-family="Segoe UI, Arial, sans-serif" font-size="15" font-weight="700" letter-spacing="2">
    DELIVERY FOCUS
  </text>

  <rect x="72" y="456" width="148" height="42" rx="21" fill="#0B1730" stroke="#1D4ED8"/>
  <text x="103" y="483" fill="white" font-family="Segoe UI, Arial, sans-serif" font-size="15" font-weight="700" letter-spacing="1.2">
    MODULAR
  </text>

  <rect x="236" y="456" width="148" height="42" rx="21" fill="#0A1727" stroke="#155E75"/>
  <text x="266" y="483" fill="white" font-family="Segoe UI, Arial, sans-serif" font-size="15" font-weight="700" letter-spacing="1.2">
    SCALABLE
  </text>

  <rect x="400" y="456" width="148" height="42" rx="21" fill="#081722" stroke="#0F766E"/>
  <text x="444" y="483" fill="white" font-family="Segoe UI, Arial, sans-serif" font-size="15" font-weight="700" letter-spacing="1.2">
    SECURE
  </text>

  <text x="72" y="542" fill="#93C5FD" font-family="Segoe UI, Arial, sans-serif" font-size="18" font-weight="600">
    Web engineering and cyber defense,
  </text>
  <text x="72" y="570" fill="#93C5FD" font-family="Segoe UI, Arial, sans-serif" font-size="18" font-weight="600">
    presented as two distinct pillars of one brand.
  </text>

  <g filter="url(#panelShadow)">
    <rect x="700" y="92" width="520" height="246" rx="28" fill="url(#webPanel)" stroke="#3B82F6"/>
    <rect x="700" y="344" width="520" height="264" rx="28" fill="url(#cyberPanel)" stroke="#14B8A6"/>
  </g>
  <rect x="716" y="104" width="488" height="60" rx="24" fill="url(#webSheen)"/>
  <rect x="716" y="356" width="488" height="64" rx="24" fill="url(#cyberSheen)"/>
  <path d="M736 172H1074" stroke="#60A5FA" stroke-opacity="0.24"/>
  <path d="M736 422H1074" stroke="#2DD4BF" stroke-opacity="0.24"/>

  <rect x="728" y="116" width="252" height="38" rx="19" fill="#0C1A33" stroke="#2563EB"/>
  <text x="760" y="140" fill="#93C5FD" font-family="Segoe UI, Arial, sans-serif" font-size="16" font-weight="700" letter-spacing="1.8">
    WEB DEVELOPMENT
  </text>

  <text x="736" y="198" fill="white" font-family="Segoe UI, Arial, sans-serif" font-size="33" font-weight="700">
    Web systems and
  </text>
  <text x="736" y="234" fill="white" font-family="Segoe UI, Arial, sans-serif" font-size="33" font-weight="700">
    digital platforms
  </text>
  <text x="736" y="270" fill="#D9EAFE" font-family="Segoe UI, Arial, sans-serif" font-size="18">
    Modern websites, modular CMS products,
  </text>
  <text x="736" y="296" fill="#D9EAFE" font-family="Segoe UI, Arial, sans-serif" font-size="18">
    and full stack delivery for scalable growth.
  </text>
  <rect x="736" y="308" width="58" height="22" rx="11" fill="#0B1730" stroke="#1D4ED8"/>
  <text x="755" y="322" fill="#DBEAFE" font-family="Segoe UI, Arial, sans-serif" font-size="10" font-weight="700" letter-spacing="0.9">
    PHP
  </text>
  <rect x="802" y="308" width="54" height="22" rx="11" fill="#0B1730" stroke="#1D4ED8"/>
  <text x="821" y="322" fill="#DBEAFE" font-family="Segoe UI, Arial, sans-serif" font-size="10" font-weight="700" letter-spacing="0.9">
    CI4
  </text>
  <rect x="864" y="308" width="82" height="22" rx="11" fill="#0B1730" stroke="#1D4ED8"/>
  <text x="883" y="322" fill="#DBEAFE" font-family="Segoe UI, Arial, sans-serif" font-size="10" font-weight="700" letter-spacing="0.9">
    NEXT.JS
  </text>
  <rect x="954" y="308" width="84" height="22" rx="11" fill="#0B1730" stroke="#1D4ED8"/>
  <text x="976" y="322" fill="#DBEAFE" font-family="Segoe UI, Arial, sans-serif" font-size="10" font-weight="700" letter-spacing="0.9">
    ASTRO.JS
  </text>

  <g filter="url(#cardShadow)">
    <rect x="1084" y="122" width="120" height="178" rx="24" fill="url(#webCard)" stroke="#2563EB"/>
  </g>
  <rect x="1103" y="136" width="84" height="22" rx="11" fill="#14315A" stroke="#60A5FA"/>
  <text x="1120" y="150" fill="#FFFFFF" font-family="Segoe UI, Arial, sans-serif" font-size="10" font-weight="700" letter-spacing="0.9">
    FRONTEND
  </text>
  <rect x="1116" y="170" width="56" height="8" rx="4" fill="#60A5FA"/>
  <rect x="1116" y="194" width="56" height="48" rx="8" fill="none" stroke="#93C5FD" stroke-width="2.5"/>
  <path d="M1128 218L1138 208L1128 198" stroke="#BFDBFE" stroke-width="2.5" stroke-linecap="round" stroke-linejoin="round"/>
  <path d="M1160 198L1150 208L1160 218" stroke="#BFDBFE" stroke-width="2.5" stroke-linecap="round" stroke-linejoin="round"/>
  <rect x="1104" y="258" width="38" height="22" rx="11" fill="#0B1730" stroke="#1D4ED8"/>
  <text x="1114" y="272" fill="#DBEAFE" font-family="Segoe UI, Arial, sans-serif" font-size="10" font-weight="700" letter-spacing="0.9">
    CMS
  </text>
  <rect x="1148" y="258" width="38" height="22" rx="11" fill="#0B1730" stroke="#1D4ED8"/>
  <text x="1158" y="272" fill="#DBEAFE" font-family="Segoe UI, Arial, sans-serif" font-size="10" font-weight="700" letter-spacing="0.9">
    WEB
  </text>

  <rect x="728" y="366" width="238" height="38" rx="19" fill="#081A20" stroke="#0F766E"/>
  <text x="760" y="390" fill="#99F6E4" font-family="Segoe UI, Arial, sans-serif" font-size="16" font-weight="700" letter-spacing="1.8">
    CYBER SECURITY
  </text>

  <text x="736" y="442" fill="white" font-family="Segoe UI, Arial, sans-serif" font-size="33" font-weight="700">
    Proactive cyber
  </text>
  <text x="736" y="478" fill="white" font-family="Segoe UI, Arial, sans-serif" font-size="33" font-weight="700">
    security architecture
  </text>
  <text x="736" y="512" fill="#D7F9F5" font-family="Segoe UI, Arial, sans-serif" font-size="16">
    AI-driven monitoring, vulnerability analysis,
  </text>
  <text x="736" y="536" fill="#D7F9F5" font-family="Segoe UI, Arial, sans-serif" font-size="16">
    and defense-oriented workflows for stronger
  </text>
  <text x="736" y="560" fill="#D7F9F5" font-family="Segoe UI, Arial, sans-serif" font-size="16">
    visibility, response readiness, and resilience.
  </text>
  <rect x="736" y="576" width="70" height="22" rx="11" fill="#081A20" stroke="#0F766E"/>
  <text x="754" y="590" fill="#CCFBF1" font-family="Segoe UI, Arial, sans-serif" font-size="10" font-weight="700" letter-spacing="0.9">
    PYTHON
  </text>
  <rect x="814" y="576" width="58" height="22" rx="11" fill="#081A20" stroke="#0F766E"/>
  <text x="833" y="590" fill="#CCFBF1" font-family="Segoe UI, Arial, sans-serif" font-size="10" font-weight="700" letter-spacing="0.9">
    YARA
  </text>
  <rect x="880" y="576" width="98" height="22" rx="11" fill="#081A20" stroke="#0F766E"/>
  <text x="897" y="590" fill="#CCFBF1" font-family="Segoe UI, Arial, sans-serif" font-size="10" font-weight="700" letter-spacing="0.9">
    MONITORING
  </text>
  <rect x="986" y="576" width="78" height="22" rx="11" fill="#081A20" stroke="#0F766E"/>
  <text x="1005" y="590" fill="#CCFBF1" font-family="Segoe UI, Arial, sans-serif" font-size="10" font-weight="700" letter-spacing="0.9">
    DEFENSE
  </text>

  <g filter="url(#cardShadow)">
    <rect x="1084" y="366" width="122" height="196" rx="24" fill="url(#cyberCard)" stroke="#14B8A6"/>
  </g>
  <rect x="1103" y="382" width="84" height="22" rx="11" fill="#0D2B32" stroke="#2DD4BF"/>
  <text x="1121" y="396" fill="#FFFFFF" font-family="Segoe UI, Arial, sans-serif" font-size="10" font-weight="700" letter-spacing="0.9">
    DEFENSE
  </text>
  <path d="M1145 422L1168 434V464C1168 483 1158 499 1145 504C1132 499 1122 483 1122 464V434L1145 422Z" fill="none" stroke="#99F6E4" stroke-width="3"/>
  <path d="M1138 464L1145 471L1158 457" stroke="#99F6E4" stroke-width="3" stroke-linecap="round" stroke-linejoin="round"/>
  <circle cx="1116" cy="434" r="5.5" fill="#14B8A6"/>
  <circle cx="1174" cy="434" r="5.5" fill="#14B8A6"/>
  <circle cx="1116" cy="524" r="5.5" fill="#14B8A6"/>
  <circle cx="1174" cy="524" r="5.5" fill="#14B8A6"/>
  <path d="M1121 438L1132 446" stroke="#2DD4BF" stroke-width="2"/>
  <path d="M1159 446L1169 438" stroke="#2DD4BF" stroke-width="2"/>
  <path d="M1121 520L1132 512" stroke="#2DD4BF" stroke-width="2"/>
  <path d="M1159 512L1169 520" stroke="#2DD4BF" stroke-width="2"/>
  <rect x="1100" y="532" width="40" height="22" rx="11" fill="#081A20" stroke="#0F766E"/>
  <text x="1110" y="546" fill="#CCFBF1" font-family="Segoe UI, Arial, sans-serif" font-size="10" font-weight="700" letter-spacing="0.9">
    AI
  </text>
  <rect x="1146" y="532" width="46" height="22" rx="11" fill="#081A20" stroke="#0F766E"/>
  <text x="1156" y="546" fill="#CCFBF1" font-family="Segoe UI, Arial, sans-serif" font-size="10" font-weight="700" letter-spacing="0.9">
    YARA
  </text>
</svg>
